# xmcd CD database file
#
# Track frame offsets:
#	150
#	32233
#	68557
#	110353
#	137713
#	190954
#	227214
#
# Disc length: 3432 seconds
#
# Revision: 0
# Processed by: cddbd v1.5.1PL2 Copyright (c) Steve Scherf et al.
# Submitted via: CDex 1.51
#
DISCID=5d0d6607
DTITLE=samir maslo - klänge aus der wirklichkeit - teil 3
DYEAR=2005
DGENRE=New Age
TTITLE0=kadw3 - titel1
TTITLE1=kadw3 - titel2
TTITLE2=kadw3 - titel3_master
TTITLE3=kadw3 - titel4
TTITLE4=kadw3 - titel5
TTITLE5=kadw3 - titel6
TTITLE6=kadw3 - titel7
EXTD=YEAR: 2005
EXTT0=
EXTT1=
EXTT2=
EXTT3=
EXTT4=
EXTT5=
EXTT6=
PLAYORDER=
